HIERARCHY
ROOT Hips
{
	OFFSET 0.000000 0.000000 0.000000
	CHANNELS 6 Xposition Yposition Zposition Zrotation Yrotation Xrotation 
	JOINT LHipJoint
	{
		OFFSET 0.000000 0.000000 0.000000
		CHANNELS 3 Zrotation Yrotation Xrotation
		JOINT LeftUpLeg
		{
			OFFSET 1.363060 -1.794630 0.839290
			CHANNELS 3 Zrotation Yrotation Xrotation
			JOINT LeftLeg
			{
				OFFSET 2.448110 -6.726130 0.000000
				CHANNELS 3 Zrotation Yrotation Xrotation
				JOINT LeftFoot
				{
					OFFSET 2.562200 -7.039590 0.000000
					CHANNELS 3 Zrotation Yrotation Xrotation
					JOINT LeftToeBase
					{
						OFFSET 0.157640 -0.433110 2.322550
						CHANNELS 3 Zrotation Yrotation Xrotation
						End Site
						{
							OFFSET 0.000000 0.000000 0.000000
						}
					}
				}
			}
		}
	}
	JOINT RHipJoint
	{
		OFFSET 0.000000 0.000000 0.000000
		CHANNELS 3 Zrotation Yrotation Xrotation
		JOINT RightUpLeg
		{
			OFFSET -1.305520 -1.794630 0.839290
			CHANNELS 3 Zrotation Yrotation Xrotation
			JOINT RightLeg
			{
				OFFSET -2.542530 -6.985550 0.000000
				CHANNELS 3 Zrotation Yrotation Xrotation
				JOINT RightFoot
				{
					OFFSET -2.568260 -7.056230 0.000000
					CHANNELS 3 Zrotation Yrotation Xrotation
					JOINT RightToeBase
					{
						OFFSET -0.164730 -0.452590 2.363150
						CHANNELS 3 Zrotation Yrotation Xrotation
						End Site
						{
							OFFSET 0.000000 0.000000 0.000000
						}
					}
				}
			}
		}
	}
}
MOTION
Frames: 19
Frame Time: 0.008333
-0.701155 17.078672 0.930026 17.014183 76.276918 28.945746 -9.499215 0.720136 4.752984 -8.114197 -7.319592 -31.911788 -2.649209 -0.165649 14.961619 -0.461006 -4.143961 0.923094 -0.288600 0.000000 -37.476100 10.470690 -4.215156 0.500127 11.053097 -4.805414 -8.508645 0.592399 -3.083280 40.020085 0.812138 14.296490 12.727204 4.599400 0.000000 -51.614800
-0.494781 17.065333 1.004762 19.213284 75.631951 30.811765 -9.427155 0.882233 4.608692 -9.185456 -6.704294 -31.345530 -2.712889 -0.083552 16.079565 -0.447959 -4.088696 0.699297 -0.269700 -0.000000 -36.846700 10.842172 -4.142713 0.369439 9.917782 -5.893797 -10.307979 0.140988 -3.254084 43.774283 0.484608 12.388951 14.703308 4.500400 0.000000 -56.791101
-0.292828 17.051298 1.081116 21.175556 74.936658 32.473467 -9.329653 1.044593 4.459477 -10.280787 -6.028038 -30.753585 -2.789409 -0.026667 17.039864 -0.423259 -3.946833 0.270446 -0.231000 -0.000000 -36.148699 11.196607 -4.016836 0.256136 8.838554 -6.835833 -12.197802 -0.262392 -3.399422 47.489856 0.124492 9.850539 16.127614 3.946500 -0.000000 -59.723000
-0.094975 17.037198 1.158203 22.818269 74.193262 33.855926 -9.214187 1.204141 4.312618 -11.352418 -5.328385 -30.135277 -2.874538 0.006447 17.836497 -0.386061 -3.726674 -0.363032 -0.178300 0.000000 -35.410400 11.521923 -3.846053 0.164527 7.848602 -7.601654 -14.148034 -0.610917 -3.531018 51.093098 -0.251032 6.842289 16.871991 2.997600 -0.000000 -60.410400
0.099351 17.023755 1.235099 24.087909 73.405731 34.912746 -9.091434 1.357522 4.174859 -12.357895 -4.636993 -29.492523 -2.963528 0.017994 18.469576 -0.336147 -3.442220 -1.176561 -0.120200 0.000001 -34.664800 11.807955 -3.643073 0.098655 6.974650 -8.176739 -16.142857 -0.905809 -3.659052 54.520017 -0.621564 3.606105 16.851552 1.809000 0.000000 -59.075800
0.290912 17.011587 1.311074 24.963808 72.579696 35.629887 -8.972685 1.501727 4.052092 -13.263435 -3.979606 -28.829662 -3.051527 0.010574 18.943706 -0.274177 -3.109695 -2.125474 -0.065600 0.000000 -33.949800 12.047549 -3.421517 0.062497 6.235674 -8.557687 -18.177587 -1.153576 -3.789294 57.712288 -0.966247 0.415756 16.058497 0.588100 -0.000001 -56.205500
0.480504 17.001172 1.385611 25.453328 71.722370 36.020820 -8.868113 1.634690 3.948541 -14.045163 -3.372873 -28.154184 -3.133907 -0.012823 19.268516 -0.201921 -2.745428 -3.152113 -0.021900 -0.000000 -33.308800 12.236594 -3.193286 0.060336 5.644084 -8.746224 -20.254436 -1.361514 -3.922267 60.620487 -1.265902 -2.472944 14.559416 -0.467701 0.000000 -52.351700
0.668877 16.992827 1.458535 25.589808 70.841858 36.121670 -8.785005 1.755845 3.866335 -14.692323 -2.825034 -27.472633 -3.206852 -0.049008 19.455503 -0.122150 -2.362949 -4.192766 0.006500 0.000000 -32.785800 12.374348 -2.966999 0.095465 5.202176 -8.750222 -22.377319 -1.534042 -4.054811 63.208800 -1.504025 -4.857537 12.465838 -1.219900 0.000000 -47.864301
0.856667 16.986605 1.529989 25.425953 69.946868 35.983576 -8.727540 1.866135 3.804168 -15.205943 -2.331510 -26.789065 -3.267905 -0.094568 19.518920 -0.038701 -1.975877 -5.187553 0.018600 -0.000000 -32.419200 12.462711 -2.747769 0.169814 4.903012 -8.582019 -24.543800 -1.671359 -4.181547 65.449288 -1.668676 -6.608960 9.926377 -1.611900 0.000001 -43.021300
1.044218 16.982359 1.600430 25.033955 69.046565 35.670739 -8.695229 1.967670 3.758305 -15.600222 -1.882442 -26.099781 -3.316385 -0.146630 19.469401 0.044597 -1.592317 -6.086379 0.016500 -0.000000 -32.233400 12.506965 -2.537486 0.282349 4.726077 -8.263404 -26.744432 -1.769822 -4.297745 67.324000 -1.752192 -7.666879 7.093925 -1.664899 -0.000000 -37.931300
1.231684 16.979831 1.670481 24.489678 68.150958 35.244630 -8.685323 2.063380 3.721079 -15.897575 -1.455517 -25.393405 -3.353385 -0.202563 19.316162 0.123746 -1.222177 -6.854526 0.003800 -0.000000 -32.232500 12.513442 -2.335692 0.429075 4.643821 -7.822024 -28.957590 -1.824117 -4.399579 68.818366 -1.752914 -8.035803 4.128589 -1.459700 -0.000000 -32.675600
1.418827 16.978664 1.740829 23.864073 67.270505 34.755566 -8.693978 2.156256 3.681476 -16.123317 -1.018023 -24.652092 -3.381523 -0.260194 19.065535 0.195009 -0.877650 -7.475199 -0.015000 0.000000 -32.401300 12.488595 -2.140261 0.603190 4.626060 -7.288979 -31.149943 -1.830152 -4.484134 69.920370 -1.676472 -7.777944 1.196931 -1.109900 0.000000 -27.433600
1.605291 16.978419 1.812206 23.230041 66.415619 34.253721 -8.713917 2.249132 3.629212 -16.308187 -0.543649 -23.850834 -3.404734 -0.318776 18.715549 0.256298 -0.564060 -7.947378 -0.036000 0.000000 -32.707100 12.440912 -1.947556 0.795709 4.636880 -6.702380 -33.287142 -1.787603 -4.550160 70.625611 -1.535724 -7.001942 -1.543626 -0.728600 -0.000000 -22.454800
1.790547 16.978648 1.885331 22.646276 65.596214 33.774580 -8.737927 2.344147 3.554180 -16.479381 -0.006381 -22.963821 -3.427428 -0.378253 18.260638 0.306367 -0.287466 -8.283274 -0.056100 0.000000 -33.110000 12.378155 -1.753566 0.996581 4.646263 -6.099087 -35.333189 -1.701807 -4.596690 70.936230 -1.350627 -5.857967 -3.948571 -0.402800 0.000000 -18.135700
1.974056 16.978888 1.960704 22.153246 64.820869 33.338328 -8.759905 2.442738 3.448352 -16.656306 0.616036 -21.969242 -3.453634 -0.438966 17.695296 0.344713 -0.054519 -8.504423 -0.073600 0.000001 -33.571400 12.306725 -1.554990 1.196173 4.633582 -5.511419 -37.255844 -1.583211 -4.622848 70.863650 -1.145554 -4.522739 -5.911685 -0.176800 -0.000000 -14.922400
2.155326 16.978650 2.038732 21.785126 64.095322 32.962231 -8.772184 2.545375 3.307598 -16.854991 1.327261 -20.842521 -3.486660 -0.502352 17.005230 0.372347 0.137136 -8.632735 -0.087800 -0.000000 -34.062200 12.233731 -1.348889 1.383484 4.580424 -4.972949 -39.029175 -1.443321 -4.629447 70.431772 -0.944667 -3.172763 -7.411778 -0.049800 0.000001 -12.943900
2.334053 16.977613 2.119456 21.540080 63.424237 32.637296 -8.774026 2.652077 3.130229 -17.071934 2.139546 -19.583802 -3.527992 -0.568116 16.195526 0.388602 0.274015 -8.691308 -0.098299 0.000000 -34.567200 12.160256 -1.135194 1.552960 4.491947 -4.497727 -40.636332 -1.293065 -4.615573 69.666527 -0.771253 -1.978412 -8.477357 0.003800 -0.000000 -12.242400
2.510154 16.975338 2.202878 21.418690 62.807886 32.361749 -8.761822 2.761780 2.919278 -17.303388 3.035830 -18.185869 -3.577584 -0.637157 15.259004 0.394762 0.360369 -8.692294 -0.105000 -0.000000 -35.088200 12.089168 -0.913584 1.698281 4.367840 -4.100509 -42.066636 -1.138771 -4.582321 68.598491 -0.642439 -1.066084 -9.208477 0.018000 -0.000001 -12.459201
2.683751 16.971593 2.288736 21.402812 62.245705 32.123877 -8.736090 2.872904 2.681001 -17.533627 3.993659 -16.657599 -3.633334 -0.709174 14.200777 0.391361 0.396748 -8.639272 -0.107700 0.000000 -35.644200 12.019623 -0.685326 1.818060 4.220026 -3.781740 -43.318696 -0.983256 -4.529638 67.251893 -0.570104 -0.518283 -9.718974 0.019300 -0.000000 -13.228200
